solid 
 facet normal -1.000000e+00  0.000000e+00  0.000000e+00
   outer loop
     vertex  0.000000e+00  0.000000e+00  3.230000e+02
     vertex  0.000000e+00  1.900000e+01  0.000000e+00
     vertex  0.000000e+00  0.000000e+00  0.000000e+00
   endloop
 endfacet
 facet normal -1.000000e+00  0.000000e+00  0.000000e+00
   outer loop
     vertex  0.000000e+00  0.000000e+00  3.230000e+02
     vertex  0.000000e+00  1.900000e+01  3.230000e+02
     vertex  0.000000e+00  1.900000e+01  0.000000e+00
   endloop
 endfacet
 facet normal  1.000000e+00  0.000000e+00  0.000000e+00
   outer loop
     vertex  1.900000e+01  0.000000e+00  3.230000e+02
     vertex  1.900000e+01  0.000000e+00  0.000000e+00
     vertex  1.900000e+01  1.900000e+01  0.000000e+00
   endloop
 endfacet
 facet normal  1.000000e+00 -0.000000e+00  0.000000e+00
   outer loop
     vertex  1.900000e+01  0.000000e+00  3.230000e+02
     vertex  1.900000e+01  1.900000e+01  0.000000e+00
     vertex  1.900000e+01  1.900000e+01  3.230000e+02
   endloop
 endfacet
 facet normal  0.000000e+00 -1.000000e+00 -0.000000e+00
   outer loop
     vertex  1.900000e+01  0.000000e+00  3.230000e+02
     vertex  0.000000e+00  0.000000e+00  0.000000e+00
     vertex  1.900000e+01  0.000000e+00  0.000000e+00
   endloop
 endfacet
 facet normal -0.000000e+00 -1.000000e+00  0.000000e+00
   outer loop
     vertex  1.900000e+01  0.000000e+00  3.230000e+02
     vertex  0.000000e+00  0.000000e+00  3.230000e+02
     vertex  0.000000e+00  0.000000e+00  0.000000e+00
   endloop
 endfacet
 facet normal  0.000000e+00  1.000000e+00  0.000000e+00
   outer loop
     vertex  1.900000e+01  1.900000e+01  3.230000e+02
     vertex  1.900000e+01  1.900000e+01  0.000000e+00
     vertex  0.000000e+00  1.900000e+01  0.000000e+00
   endloop
 endfacet
 facet normal  0.000000e+00  1.000000e+00  0.000000e+00
   outer loop
     vertex  1.900000e+01  1.900000e+01  3.230000e+02
     vertex  0.000000e+00  1.900000e+01  0.000000e+00
     vertex  0.000000e+00  1.900000e+01  3.230000e+02
   endloop
 endfacet
 facet normal -0.000000e+00  0.000000e+00 -1.000000e+00
   outer loop
     vertex  1.900000e+01  1.900000e+01  0.000000e+00
     vertex  0.000000e+00  0.000000e+00  0.000000e+00
     vertex  0.000000e+00  1.900000e+01  0.000000e+00
   endloop
 endfacet
 facet normal  0.000000e+00 -0.000000e+00 -1.000000e+00
   outer loop
     vertex  1.900000e+01  1.900000e+01  0.000000e+00
     vertex  1.900000e+01  0.000000e+00  0.000000e+00
     vertex  0.000000e+00  0.000000e+00  0.000000e+00
   endloop
 endfacet
 facet normal  0.000000e+00  0.000000e+00  1.000000e+00
   outer loop
     vertex  1.900000e+01  1.900000e+01  3.230000e+02
     vertex  0.000000e+00  1.900000e+01  3.230000e+02
     vertex  0.000000e+00  0.000000e+00  3.230000e+02
   endloop
 endfacet
 facet normal  0.000000e+00  0.000000e+00  1.000000e+00
   outer loop
     vertex  1.900000e+01  1.900000e+01  3.230000e+02
     vertex  0.000000e+00  0.000000e+00  3.230000e+02
     vertex  1.900000e+01  0.000000e+00  3.230000e+02
   endloop
 endfacet
endsolid
